<svg width="244" height="65" viewBox="0 0 244 65" fill="none" xmlns="http://www.w3.org/2000/svg">
<path d="M101.986 20.4011C101.089 19.0766 100.087 18.6113 98.5828 18.6113H91.9539C90.4495 18.6113 89.4475 19.0766 88.5511 20.4011L73.8262 42.1861H79.5585L82.0649 38.5661C82.6729 37.6696 83.3553 37.2043 84.5372 37.2043H105.996C107.178 37.2043 107.861 37.6696 108.469 38.5661L110.975 42.1861H116.707L101.986 20.4011ZM91.2746 24.6632C91.8112 23.8381 92.4564 23.1588 93.781 23.1588H96.7557C98.0802 23.1588 98.6913 23.8381 99.2621 24.6632L104.535 32.4367H85.9982L91.2715 24.6632H91.2746Z" fill="white"/>
<path d="M161.586 31.509V29.288C161.586 26.2078 161.301 24.9887 164.415 24.0581C167.352 23.1989 173.228 22.9104 175.2 22.9104C177.173 22.9104 183.045 23.1958 185.983 24.0581C189.1 24.9887 188.812 26.2078 188.812 29.288V31.509C188.812 34.5892 189.097 35.8083 185.983 36.7389C183.045 37.5981 177.17 37.8866 175.2 37.8866C173.231 37.8866 167.352 37.6012 164.415 36.7389C161.298 35.8083 161.586 34.5892 161.586 31.509ZM156.679 26.0992V34.6978C156.679 38.0293 157.073 39.6051 160.547 40.9668C163.593 42.1486 169.468 42.9738 175.2 42.9738C180.933 42.9738 186.808 42.1486 189.854 40.9668C193.328 39.6051 193.722 38.0293 193.722 34.6978V26.0992C193.722 22.7677 193.328 21.1919 189.854 19.8302C186.808 18.6484 180.933 17.8232 175.2 17.8232C169.468 17.8232 163.593 18.6484 160.547 19.8302C157.073 21.1919 156.679 22.7677 156.679 26.0992Z" fill="white"/>
<path d="M129.9 42.1859H134.702V24.9887C134.702 23.627 135.276 23.1617 136.566 23.1617H151.722L150.326 20.2614C149.718 18.971 148.856 18.6143 147.423 18.6143H117.185C115.752 18.6143 114.893 18.971 114.282 20.2614L112.886 23.1617H128.042C129.332 23.1617 129.906 23.627 129.906 24.9887V42.1859H129.9Z" fill="white"/>
<path d="M221.265 34.4126H223.774C225.459 34.4126 226.209 33.876 226.855 33.0136L235.881 20.7951C237.063 19.1821 237.851 18.6113 239.787 18.6113H243.189V42.1861H238.388V25.0603L229.181 37.7782C228.213 39.1027 227.103 39.6425 225.561 39.6425H219.543C218.002 39.6425 216.857 39.1058 215.889 37.7782L206.646 25.0944V42.183H201.844V18.6113H205.247C207.182 18.6113 208.004 19.2565 209.152 20.7951L218.182 33.0136C218.827 33.8729 219.578 34.4126 221.262 34.4126H221.265Z" fill="white"/>
<path d="M48.0922 36.3357C45.409 32.0922 42.2978 27.4983 39.1524 23.261C36.6398 19.8768 35.3804 18.1211 32.2909 18.1211H32.232C29.1425 18.1211 27.8831 19.8737 25.3705 23.261C22.2282 27.4983 19.1139 32.0922 16.4307 36.3357C15.5497 37.7284 14.4051 40.607 16.7254 42.0463C17.3303 42.4217 17.8886 42.5768 18.419 42.5768C19.7405 42.5768 20.8758 41.6028 22.0825 40.607C25.9847 37.3872 28.9222 34.8219 32.232 34.8219H32.2878C35.5976 34.8219 38.5382 37.3841 42.4374 40.607C43.644 41.6028 44.7793 42.5768 46.1007 42.5768C46.6312 42.5768 47.1895 42.4186 47.7944 42.0463C50.1147 40.607 48.97 37.7315 48.0891 36.3357H48.0922Z" fill="black"/>
<path d="M32.26 64.52C50.0767 64.52 64.52 50.0767 64.52 32.26C64.52 14.4433 50.0767 0 32.26 0C14.4433 0 0 14.4433 0 32.26C0 50.0767 14.4433 64.52 32.26 64.52Z" fill="#00FFFF"/>
<path d="M32.26 62.0584H32.195C14.0487 62.0584 1.30078 49.8308 1.30078 33.1805C1.30078 15.4245 15.8698 1.50586 32.195 1.50586H32.325C48.6502 1.50586 63.2192 15.4245 63.2192 33.1805C63.2192 49.8308 50.4713 62.0584 32.325 62.0584H32.26Z" fill="#00F3F3"/>
<path d="M31.089 59.6017H33.4305C50.9264 59.6017 61.7881 49.4554 61.7881 33.9758C61.7881 16.8702 47.8695 3.0166 32.2598 3.0166C16.6501 3.0166 2.73145 16.8702 2.73145 33.9758C2.73145 49.4554 13.5932 59.6017 31.089 59.6017Z" fill="#00E8E8"/>
<path d="M35.5764 57.08C51.056 57.08 60.5519 48.8198 60.5519 35.4215C60.5519 19.5517 47.4138 4.52734 32.3244 4.52734H32.1943C17.105 4.52734 3.9668 19.5517 3.9668 35.4215C3.9668 48.8198 13.4627 57.08 28.9423 57.08H35.5764Z" fill="#00DCDC"/>
<path d="M37.6577 54.6428H26.861C11.9667 54.6428 5.78787 46.968 5.33259 36.6916C4.68219 20.6917 18.5358 6.05762 32.1943 6.05762H32.3243C45.9828 6.05762 59.8364 20.6917 59.186 36.6916C58.7307 46.968 52.5519 54.6428 37.6577 54.6428Z" fill="#00D1D1"/>
<path d="M32.26 52.1171C29.3332 52.1171 26.5364 52.2472 23.8047 52.2472C20.7478 52.2472 18.0812 52.1821 15.8698 51.4667C9.88609 49.4505 6.8292 42.6212 6.76416 35.9871C6.69912 26.166 13.2032 17.5156 19.2519 12.6376C23.3495 9.32054 27.3169 7.56445 32.26 7.56445C37.2031 7.56445 41.1705 9.32054 45.2681 12.6376C51.3168 17.5156 57.8209 26.166 57.7558 35.9871C57.6908 42.6212 54.6339 49.4505 48.6502 51.4667C46.4388 52.1821 43.7721 52.2472 40.7152 52.2472C37.9835 52.2472 35.1868 52.1171 32.26 52.1171Z" fill="#00C5C5"/>
<path d="M19.9028 50.4252C22.9597 50.4252 27.7727 49.6448 32.2604 49.6448C36.7482 49.6448 41.5612 50.4252 44.6181 50.4252C53.6587 50.4252 56.4555 43.0757 56.4555 36.9619C56.4555 29.8074 52.6831 22.8481 48.1303 17.7099C44.8132 14.0026 39.1547 9.05957 32.3255 9.05957H32.1954C25.3662 9.05957 19.7077 14.0026 16.3906 17.7099C11.8378 22.8481 8.06543 29.8074 8.06543 36.9619C8.06543 43.0757 10.8622 50.4252 19.9028 50.4252Z" fill="#00BABA"/>
<path d="M32.2602 47.1871C26.2765 47.1871 21.9838 48.9431 18.5367 48.9431C11.9676 48.9431 9.49609 42.7643 9.49609 37.6912C9.49609 26.114 22.1139 10.5693 32.0001 10.5693H32.5204C42.4065 10.5693 55.0243 26.114 55.0243 37.6912C55.0243 42.7643 52.5528 48.9431 45.9837 48.9431C42.5366 48.9431 38.2439 47.1871 32.2602 47.1871Z" fill="#00AEAE"/>
<path d="M32.26 44.6653H32.195C25.6909 44.6653 21.3983 47.5271 17.821 47.5271C13.1381 47.5271 10.6016 43.2344 10.6016 38.1613C10.6016 31.9174 14.4389 25.2182 18.9267 20.1451C23.3495 15.202 27.1218 12.0801 32.195 12.0801H32.325C37.3982 12.0801 41.1705 15.202 45.5933 20.1451C50.0811 25.2182 53.9184 31.9174 53.9184 38.1613C53.9184 43.2344 51.3819 47.5271 46.699 47.5271C43.1217 47.5271 38.8291 44.6653 32.325 44.6653H32.26Z" fill="#00A3A3"/>
<path d="M32.3246 42.2135H32.1945C25.4954 42.2135 21.5279 46.1809 17.7556 46.246C14.1133 46.311 11.8369 42.7338 11.8369 38.5712C11.8369 32.9127 16.2597 25.6282 21.593 19.9046C24.9751 16.2624 27.9019 13.5957 32.1295 13.5957H32.3897C36.6173 13.5957 39.5441 16.2624 42.9262 19.9046C48.2595 25.6282 52.6823 32.9127 52.6823 38.5712C52.6823 42.7338 50.4058 46.311 46.7636 46.246C42.9912 46.1809 39.0238 42.2135 32.3246 42.2135Z" fill="#009797"/>
<path d="M32.2601 39.6773C28.5528 39.6773 25.3659 41.4984 23.0244 42.7992C20.6179 44.165 19.3822 44.8805 17.8862 44.8805C15.2196 44.8805 13.0732 42.539 13.0732 39.0269C13.0732 33.7586 17.8862 27.1895 21.0732 23.157C25.1057 18.0188 27.8374 14.9619 32.2601 14.9619C36.6829 14.9619 39.4146 18.0188 43.4471 23.157C46.6341 27.1895 51.4471 33.7586 51.4471 39.0269C51.4471 42.539 49.3007 44.8805 46.6341 44.8805C45.1381 44.8805 43.9024 44.165 41.4959 42.7992C39.1544 41.4984 35.9675 39.6773 32.2601 39.6773Z" fill="#008C8C"/>
<path d="M32.2599 37.2951C28.7478 37.2951 25.6258 39.5065 22.764 41.5228C20.4226 43.1488 19.1868 43.7341 17.9511 43.7341C16.0649 43.7341 14.1787 42.3683 14.1787 39.7016C14.1787 35.7342 18.3413 29.6854 21.7884 25.2627L22.699 24.0919C27.1868 18.3034 28.9429 16.6123 32.2599 16.6123C35.577 16.6123 37.3331 18.3034 41.8209 24.0919L42.7314 25.2627C46.1786 29.6854 50.3412 35.7342 50.3412 39.7016C50.3412 42.3683 48.455 43.7341 46.5688 43.7341C45.333 43.7341 44.0973 43.1488 41.7558 41.5228C38.8941 39.5065 35.7721 37.2951 32.2599 37.2951Z" fill="#008080"/>
<path d="M32.2601 18.1221C29.3333 18.1221 27.9024 19.8782 25.3658 23.2603C22.2439 27.4879 19.122 32.1057 17.1057 35.2277C15.6748 37.5041 15.3496 38.6098 15.3496 39.5203C15.3496 41.4065 16.6504 42.5772 18.3415 42.5772C19.8374 42.5772 20.9431 41.6667 23.0894 39.9106C26.0162 37.4391 28.813 34.8374 32.2601 34.8374C35.7072 34.8374 38.504 37.4391 41.4308 39.9106C43.5771 41.6667 44.6828 42.5772 46.1787 42.5772C47.8698 42.5772 49.1706 41.4065 49.1706 39.5203C49.1706 38.6098 48.8454 37.5041 47.4145 35.2277C45.3983 32.1057 42.2763 27.4879 39.1544 23.2603C36.6178 19.8782 35.1869 18.1221 32.2601 18.1221Z" fill="black"/>
</svg>
