<svg width="304" height="299" viewBox="0 0 304 299" fill="none" xmlns="http://www.w3.org/2000/svg">
<path d="M0.0703125 151.715C0.0467348 154.048 0.0231576 156.382 -0.000420094 158.715C4.7134 158.715 9.42722 158.715 14.141 158.715C14.1175 156.382 14.0939 154.048 14.0703 151.715C13.9518 140.699 15.1163 129.674 17.5684 118.931C30.6833 57.3434 90.0627 8.98233 154.07 9.38151C229.818 6.69102 299.773 74.5957 298.737 151.715C300.529 216.698 252.441 279.241 188.32 294.344C177.147 297.139 165.625 298.6 154.07 298.715C165.625 298.834 177.202 297.606 188.483 295.025C253.165 281.211 303.845 218.87 303.404 151.715C306.176 72.2315 234.925 -1.0691 154.07 0.0481772C85.9397 -1.78549 20.4353 48.6206 4.63343 115.836C1.70927 127.547 0.184627 139.621 0.0703125 151.715Z" fill="#008080"/>
</svg>
